<svg width="120" height="40" viewBox="0 0 120 40" fill="none" xmlns="http://www.w3.org/2000/svg">
  <path d="M18.4 10L25.2 30H20.8L19.2 25.2H10.4L8.8 30H4.4L11.2 10H18.4ZM18 21.2L14.8 12.4L11.6 21.2H18Z" fill="#0070F3"/>
  <path d="M32.1375 10H36.5375V26.4H46.9375V30H32.1375V10Z" fill="#0070F3"/>
  <path d="M54.5219 10L61.3219 30H56.9219L55.3219 25.2H46.5219L44.9219 30H40.5219L47.3219 10H54.5219ZM54.1219 21.2L50.9219 12.4L47.7219 21.2H54.1219Z" fill="#0070F3"/>
  <path d="M66.7594 10H71.1594V30H66.7594V10Z" fill="#0070F3"/>
  <path d="M83.3969 10H87.7969V30H83.3969V17.6L76.9969 27.2H76.5969L70.1969 17.6V30H65.7969V10H70.1969L76.7969 20.4L83.3969 10Z" fill="#0070F3"/>
  <path d="M96.1844 10C99.3844 10 101.784 10.8 103.384 12.4C104.984 14 105.784 16.4 105.784 19.6V20.4C105.784 23.6 104.984 26 103.384 27.6C101.784 29.2 99.3844 30 96.1844 30H89.7844V10H96.1844ZM96.1844 26.4C99.7844 26.4 101.584 24.4 101.584 20.4V19.6C101.584 15.6 99.7844 13.6 96.1844 13.6H93.9844V26.4H96.1844Z" fill="#0070F3"/>
</svg> 