<svg width="1200" height="800" viewBox="0 0 1200 800" fill="none" xmlns="http://www.w3.org/2000/svg">
  <rect width="1200" height="800" fill="#F3F4F6"/>
  
  <!-- 背景元素 -->
  <rect x="100" y="100" width="1000" height="600" rx="12" fill="#E5E7EB"/>
  <rect x="100" y="650" width="1000" height="50" rx="6" fill="#D1D5DB"/>
  
  <!-- 团队成员图标 -->
  <g transform="translate(300, 300)">
    <circle cx="0" cy="0" r="50" fill="#9CA3AF"/>
    <path d="M0 70C46.5 70 85 90 85 115V125H-85V115C-85 90 -46.5 70 0 70Z" fill="#9CA3AF"/>
  </g>
  
  <g transform="translate(450, 280)">
    <circle cx="0" cy="0" r="60" fill="#6B7280"/>
    <path d="M0 80C55.8 80 102 104 102 134V146H-102V134C-102 104 -55.8 80 0 80Z" fill="#6B7280"/>
  </g>
  
  <g transform="translate(600, 270)">
    <circle cx="0" cy="0" r="70" fill="#4B5563"/>
    <path d="M0 90C65.1 90 119 117 119 150V164H-119V150C-119 117 -65.1 90 0 90Z" fill="#4B5563"/>
  </g>
  
  <g transform="translate(750, 280)">
    <circle cx="0" cy="0" r="60" fill="#6B7280"/>
    <path d="M0 80C55.8 80 102 104 102 134V146H-102V134C-102 104 -55.8 80 0 80Z" fill="#6B7280"/>
  </g>
  
  <g transform="translate(900, 300)">
    <circle cx="0" cy="0" r="50" fill="#9CA3AF"/>
    <path d="M0 70C46.5 70 85 90 85 115V125H-85V115C-85 90 -46.5 70 0 70Z" fill="#9CA3AF"/>
  </g>
  
  <!-- 文字 -->
  <text x="600" y="550" font-family="Arial" font-size="32" text-anchor="middle" fill="#1F2937">WINUC 团队</text>
  <text x="600" y="600" font-family="Arial" font-size="20" text-anchor="middle" fill="#4B5563">创新、协作、卓越</text>
</svg> 