<svg width="1200" height="800" viewBox="0 0 1200 800" fill="none" xmlns="http://www.w3.org/2000/svg">
  <rect width="1200" height="800" fill="#FFEDD5"/>
  <path d="M600 200C652.5 200 695 242.5 695 295C695 347.5 652.5 390 600 390C547.5 390 505 347.5 505 295C505 242.5 547.5 200 600 200ZM600 415C700 415 780 455 780 505V525H420V505C420 455 500 415 600 415Z" fill="#FB923C"/>
  <text x="600" y="620" font-family="Arial" font-size="42" text-anchor="middle" font-weight="bold" fill="#9A3412">云端协作工具</text>
  <text x="600" y="680" font-family="Arial" font-size="24" text-anchor="middle" fill="#9A3412">无缝连接的远程协作体验</text>
  
  <rect x="300" y="720" width="200" height="40" rx="8" fill="#FB923C"/>
  <text x="400" y="747" font-family="Arial" font-size="18" text-anchor="middle" fill="white">200+ 企业用户</text>
  
  <rect x="520" y="720" width="200" height="40" rx="8" fill="#FB923C"/>
  <text x="620" y="747" font-family="Arial" font-size="18" text-anchor="middle" fill="white">沟通成本降低 40%</text>
  
  <rect x="740" y="720" width="160" height="40" rx="8" fill="#FB923C"/>
  <text x="820" y="747" font-family="Arial" font-size="18" text-anchor="middle" fill="white">24/7 全天候支持</text>
</svg> 